<svg width="250" height="108" viewBox="0 0 250 108" fill="none" xmlns="http://www.w3.org/2000/svg">
<mask id="path-1-inside-1_2350_488" fill="white">
<path d="M0.541407 108V2.24999H28.1414V108H0.541407ZM86.5699 109.65C81.0699 109.65 75.6699 109.2 70.3699 108.3C65.0699 107.4 60.1699 106.1 55.6699 104.4C51.1699 102.7 47.2699 100.7 43.9699 98.4L51.6199 76.95C54.7199 78.95 58.1699 80.7 61.9699 82.2C65.7699 83.7 69.7699 84.9 73.9699 85.8C78.1699 86.6 82.3699 87 86.5699 87C93.1699 87 97.7699 86.15 100.37 84.45C103.07 82.65 104.42 80.45 104.42 77.85C104.42 76.25 104.02 74.9 103.22 73.8C102.42 72.7 101.07 71.75 99.1699 70.95C97.3699 70.05 94.9199 69.3 91.8199 68.7L74.2699 64.95C64.6699 62.95 57.5199 59.45 52.8199 54.45C48.1199 49.45 45.7699 43 45.7699 35.1C45.7699 28.1 47.6199 22.05 51.3199 16.95C55.1199 11.75 60.3699 7.74999 67.0699 4.94999C73.8699 2.05 81.6699 0.599997 90.4699 0.599997C95.3699 0.599997 100.07 1.05 104.57 1.95C109.17 2.85 113.42 4.2 117.32 6C121.22 7.69999 124.52 9.69999 127.22 12L119.57 32.1C115.77 29.3 111.32 27.15 106.22 25.65C101.22 24.05 95.8699 23.25 90.1699 23.25C86.4699 23.25 83.3199 23.7 80.7199 24.6C78.1199 25.4 76.1199 26.6 74.7199 28.2C73.4199 29.8 72.7699 31.65 72.7699 33.75C72.7699 35.85 73.6199 37.65 75.3199 39.15C77.1199 40.55 80.3699 41.75 85.0699 42.75L102.47 46.5C112.17 48.6 119.42 52.05 124.22 56.85C129.02 61.65 131.42 67.9 131.42 75.6C131.42 82.4 129.57 88.4 125.87 93.6C122.17 98.7 116.97 102.65 110.27 105.45C103.57 108.25 95.6699 109.65 86.5699 109.65ZM195.975 109.65C187.975 109.65 180.675 108.35 174.075 105.75C167.475 103.15 161.775 99.45 156.975 94.65C152.275 89.75 148.625 83.95 146.025 77.25C143.525 70.55 142.275 63.15 142.275 55.05C142.275 46.85 143.525 39.4 146.025 32.7C148.625 26 152.275 20.25 156.975 15.45C161.775 10.65 167.475 6.99999 174.075 4.49999C180.675 1.9 187.975 0.599997 195.975 0.599997C203.975 0.599997 211.275 1.9 217.875 4.49999C224.475 6.99999 230.125 10.65 234.825 15.45C239.625 20.25 243.275 26 245.775 32.7C248.375 39.3 249.675 46.7 249.675 54.9C249.675 63.2 248.375 70.7 245.775 77.4C243.275 84.1 239.625 89.9 234.825 94.8C230.125 99.6 224.475 103.3 217.875 105.9C211.275 108.4 203.975 109.65 195.975 109.65ZM195.975 86.55C201.275 86.55 205.775 85.3 209.475 82.8C213.175 80.3 216.025 76.7 218.025 72C220.025 67.3 221.025 61.65 221.025 55.05C221.025 48.45 220.025 42.8 218.025 38.1C216.125 33.4 213.275 29.85 209.475 27.45C205.775 24.95 201.275 23.7 195.975 23.7C190.775 23.7 186.275 24.95 182.475 27.45C178.775 29.85 175.925 33.4 173.925 38.1C171.925 42.8 170.925 48.45 170.925 55.05C170.925 61.65 171.875 67.3 173.775 72C175.775 76.7 178.675 80.3 182.475 82.8C186.275 85.3 190.775 86.55 195.975 86.55Z"/>
</mask>
<path d="M0.541407 108H-0.958593V109.5H0.541407V108ZM0.541407 2.24999V0.749992H-0.958593V2.24999H0.541407ZM28.1414 2.24999H29.6414V0.749992H28.1414V2.24999ZM28.1414 108V109.5H29.6414V108H28.1414ZM2.04141 108V2.24999H-0.958593V108H2.04141ZM0.541407 3.74999H28.1414V0.749992H0.541407V3.74999ZM26.6414 2.24999V108H29.6414V2.24999H26.6414ZM28.1414 106.5H0.541407V109.5H28.1414V106.5ZM70.3699 108.3L70.1188 109.779L70.3699 108.3ZM55.6699 104.4L55.1398 105.803L55.6699 104.4ZM43.9699 98.4L42.5571 97.8961L42.1722 98.9754L43.1122 99.6306L43.9699 98.4ZM51.6199 76.95L52.4331 75.6896L50.8428 74.6636L50.2071 76.4461L51.6199 76.95ZM61.9699 82.2L61.4192 83.5952L61.9699 82.2ZM73.9699 85.8L73.6556 87.2667L73.6724 87.2703L73.6893 87.2735L73.9699 85.8ZM100.37 84.45L101.191 85.7055L101.202 85.6981L100.37 84.45ZM103.22 73.8L102.007 74.6823V74.6823L103.22 73.8ZM99.1699 70.95L98.4991 72.2916L98.5428 72.3135L98.5878 72.3325L99.1699 70.95ZM91.8199 68.7L91.5065 70.1669L91.5207 70.1699L91.5349 70.1727L91.8199 68.7ZM74.2699 64.95L74.5834 63.4831L74.5759 63.4815L74.2699 64.95ZM52.8199 54.45L53.9129 53.4226L52.8199 54.45ZM51.3199 16.95L50.1088 16.065L50.1058 16.0691L51.3199 16.95ZM67.0699 4.94999L67.6483 6.33403L67.6584 6.32976L67.0699 4.94999ZM104.57 1.95L104.276 3.42088L104.282 3.42208L104.57 1.95ZM117.32 6L116.691 7.36194L116.706 7.36865L116.721 7.37504L117.32 6ZM127.22 12L128.622 12.5336L128.998 11.5444L128.193 10.8581L127.22 12ZM119.57 32.1L118.68 33.3076L120.27 34.4787L120.972 32.6336L119.57 32.1ZM106.22 25.65L105.763 27.0786L105.78 27.084L105.797 27.089L106.22 25.65ZM80.7199 24.6L81.161 26.0337L81.186 26.026L81.2106 26.0175L80.7199 24.6ZM74.7199 28.2L73.5911 27.2122L73.573 27.2329L73.5558 27.2541L74.7199 28.2ZM75.3199 39.15L74.3275 40.2747L74.3623 40.3055L74.399 40.334L75.3199 39.15ZM85.0699 42.75L85.3859 41.2837L85.3821 41.2828L85.0699 42.75ZM102.47 46.5L102.787 45.034L102.786 45.0337L102.47 46.5ZM125.87 93.6L127.084 94.4809L127.092 94.4696L125.87 93.6ZM110.27 105.45L110.848 106.834L110.27 105.45ZM86.5699 108.15C81.1521 108.15 75.8362 107.707 70.621 106.821L70.1188 109.779C75.5037 110.693 80.9877 111.15 86.5699 111.15V108.15ZM70.621 106.821C65.4053 105.935 60.5999 104.659 56.2 102.997L55.1398 105.803C59.74 107.541 64.7345 108.865 70.1188 109.779L70.621 106.821ZM56.2 102.997C51.7941 101.332 48.0084 99.3863 44.8276 97.1694L43.1122 99.6306C46.5314 102.014 50.5458 104.068 55.1398 105.803L56.2 102.997ZM45.3828 98.9039L53.0328 77.4539L50.2071 76.4461L42.5571 97.8961L45.3828 98.9039ZM50.8067 78.2104C53.9979 80.2692 57.5371 82.0628 61.4192 83.5952L62.5207 80.8048C58.8027 79.3372 55.442 77.6308 52.4331 75.6896L50.8067 78.2104ZM61.4192 83.5952C65.2997 85.127 69.3791 86.3503 73.6556 87.2667L74.2842 84.3333C70.1608 83.4497 66.2401 82.273 62.5207 80.8048L61.4192 83.5952ZM73.6893 87.2735C77.9801 88.0908 82.2741 88.5 86.5699 88.5V85.5C82.4658 85.5 78.3597 85.1092 74.2506 84.3265L73.6893 87.2735ZM86.5699 88.5C93.1991 88.5 98.194 87.6649 101.191 85.7055L99.549 83.1945C97.3459 84.6351 93.1408 85.5 86.5699 85.5V88.5ZM101.202 85.6981C104.202 83.6982 105.92 81.0779 105.92 77.85H102.92C102.92 79.8221 101.938 81.6019 99.5379 83.2019L101.202 85.6981ZM105.92 77.85C105.92 75.9906 105.451 74.3171 104.433 72.9177L102.007 74.6823C102.589 75.4829 102.92 76.5094 102.92 77.85H105.92ZM104.433 72.9177C103.41 71.5107 101.784 70.423 99.752 69.5675L98.5878 72.3325C100.356 73.077 101.43 73.8893 102.007 74.6823L104.433 72.9177ZM99.8407 69.6084C97.87 68.623 95.2721 67.8403 92.105 67.2273L91.5349 70.1727C94.5677 70.7597 96.8699 71.477 98.4991 72.2916L99.8407 69.6084ZM92.1334 67.2331L74.5834 63.4831L73.9565 66.4169L91.5065 70.1669L92.1334 67.2331ZM74.5759 63.4815C65.153 61.5184 58.3292 58.1208 53.9129 53.4226L51.727 55.4774C56.7107 60.7791 64.1868 64.3816 73.964 66.4185L74.5759 63.4815ZM53.9129 53.4226C49.5139 48.7429 47.2699 42.6802 47.2699 35.1H44.2699C44.2699 43.3198 46.7259 50.1571 51.727 55.4774L53.9129 53.4226ZM47.2699 35.1C47.2699 28.3796 49.0404 22.6465 52.5341 17.8308L50.1058 16.0691C46.1995 21.4535 44.2699 27.8204 44.2699 35.1H47.2699ZM52.531 17.835C56.1497 12.8831 61.1678 9.04227 67.6483 6.334L66.4915 3.56599C59.572 6.45772 54.0901 10.6169 50.1088 16.065L52.531 17.835ZM67.6584 6.32976C74.2404 3.5227 81.8343 2.1 90.4699 2.1V-0.900002C81.5055 -0.900002 73.4994 0.577293 66.4815 3.57023L67.6584 6.32976ZM90.4699 2.1C95.2778 2.1 99.8789 2.5415 104.276 3.42087L104.864 0.479126C100.261 -0.441505 95.4621 -0.900002 90.4699 -0.900002V2.1ZM104.282 3.42208C108.775 4.30117 112.909 5.61644 116.691 7.36194L117.949 4.63806C113.93 2.78355 109.565 1.39883 104.858 0.477909L104.282 3.42208ZM116.721 7.37504C120.511 9.02745 123.679 10.9544 126.247 13.1419L128.193 10.8581C125.361 8.44563 121.928 6.37254 117.919 4.62495L116.721 7.37504ZM125.818 11.4664L118.168 31.5664L120.972 32.6336L128.622 12.5336L125.818 11.4664ZM120.46 30.8924C116.502 27.9764 111.89 25.7541 106.643 24.2109L105.797 27.089C110.75 28.5459 115.038 30.6236 118.68 33.3076L120.46 30.8924ZM106.677 24.2214C101.517 22.5702 96.0118 21.75 90.1699 21.75V24.75C95.728 24.75 100.923 25.5298 105.763 27.0786L106.677 24.2214ZM90.1699 21.75C86.3567 21.75 83.031 22.2127 80.2293 23.1825L81.2106 26.0175C83.6089 25.1873 86.5831 24.75 90.1699 24.75V21.75ZM80.2788 23.1663C77.486 24.0257 75.2192 25.3515 73.5911 27.2122L75.8488 29.1878C77.0207 27.8485 78.7538 26.7743 81.161 26.0337L80.2788 23.1663ZM73.5558 27.2541C72.0341 29.1269 71.2699 31.3125 71.2699 33.75H74.2699C74.2699 31.9875 74.8057 30.4731 75.8841 29.1459L73.5558 27.2541ZM71.2699 33.75C71.2699 36.3175 72.3337 38.5156 74.3275 40.2747L76.3124 38.0252C74.9061 36.7844 74.2699 35.3825 74.2699 33.75H71.2699ZM74.399 40.334C76.4865 41.9576 80.0289 43.211 84.7578 44.2172L85.3821 41.2828C80.711 40.289 77.7533 39.1423 76.2408 37.966L74.399 40.334ZM84.7539 44.2163L102.154 47.9663L102.786 45.0337L85.3859 41.2837L84.7539 44.2163ZM102.153 47.966C111.694 50.0317 118.637 53.388 123.159 57.9107L125.281 55.7893C120.203 50.712 112.646 47.1683 102.787 45.034L102.153 47.966ZM123.159 57.9107C127.639 62.3907 129.92 68.2396 129.92 75.6H132.92C132.92 67.5604 130.401 60.9093 125.281 55.7893L123.159 57.9107ZM129.92 75.6C129.92 82.1099 128.155 87.8014 124.648 92.7304L127.092 94.4696C130.985 88.9986 132.92 82.6901 132.92 75.6H129.92ZM124.656 92.7192C121.141 97.564 116.177 101.356 109.692 104.066L110.848 106.834C117.763 103.944 123.199 99.836 127.084 94.4808L124.656 92.7192ZM109.692 104.066C103.215 106.773 95.5199 108.15 86.5699 108.15V111.15C95.82 111.15 103.925 109.727 110.848 106.834L109.692 104.066ZM174.075 105.75L174.625 104.354L174.075 105.75ZM156.975 94.65L155.892 95.6883L155.903 95.6996L155.914 95.7107L156.975 94.65ZM146.025 77.25L144.62 77.7744L144.623 77.7835L144.627 77.7927L146.025 77.25ZM146.025 32.7L144.627 32.1573L144.623 32.1665L144.62 32.1756L146.025 32.7ZM156.975 15.45L155.914 14.3893L155.909 14.3949L155.903 14.4006L156.975 15.45ZM174.075 4.49999L174.606 5.90273L174.616 5.89923L174.625 5.8956L174.075 4.49999ZM217.875 4.49999L217.325 5.8956L217.334 5.89923L217.344 5.90273L217.875 4.49999ZM234.825 15.45L233.753 16.4994L233.759 16.5051L233.764 16.5107L234.825 15.45ZM245.775 32.7L244.37 33.2244L244.374 33.2371L244.379 33.2498L245.775 32.7ZM245.775 77.4L244.377 76.8573L244.373 76.8665L244.37 76.8756L245.775 77.4ZM234.825 94.8L233.753 93.7503L233.753 93.7506L234.825 94.8ZM217.875 105.9L218.406 107.303L218.416 107.299L218.425 107.296L217.875 105.9ZM209.475 82.8L208.635 81.5571L209.475 82.8ZM218.025 72L216.645 71.4127H216.645L218.025 72ZM218.025 38.1L216.634 38.6622L216.639 38.6748L216.645 38.6873L218.025 38.1ZM209.475 27.45L208.635 28.6929L208.654 28.7059L208.674 28.7182L209.475 27.45ZM182.475 27.45L183.291 28.7085L183.299 28.7031L182.475 27.45ZM173.925 38.1L172.545 37.5127L173.925 38.1ZM173.775 72L172.384 72.5622L172.389 72.5748L172.395 72.5873L173.775 72ZM182.475 82.8L181.651 84.0531L182.475 82.8ZM195.975 108.15C188.139 108.15 181.029 106.877 174.625 104.354L173.525 107.146C180.321 109.823 187.811 111.15 195.975 111.15V108.15ZM174.625 104.354C168.207 101.826 162.684 98.2373 158.036 93.5893L155.914 95.7107C160.866 100.663 166.743 104.474 173.525 107.146L174.625 104.354ZM158.058 93.6117C153.502 88.8627 149.956 83.2338 147.423 76.7073L144.627 77.7927C147.294 84.6662 151.048 90.6373 155.892 95.6883L158.058 93.6117ZM147.43 76.7256C145.001 70.2141 143.775 62.9945 143.775 55.05H140.775C140.775 63.3055 142.049 70.8859 144.62 77.7744L147.43 76.7256ZM143.775 55.05C143.775 47.0031 145.001 39.734 147.43 33.2244L144.62 32.1756C142.049 39.066 140.775 46.6969 140.775 55.05H143.775ZM147.423 33.2427C149.955 26.7186 153.499 21.1444 158.047 16.4994L155.903 14.4006C151.051 19.3556 147.295 25.2814 144.627 32.1573L147.423 33.2427ZM158.036 16.5107C162.679 11.8669 168.197 8.33054 174.606 5.90273L173.544 3.09725C166.753 5.66945 160.871 9.43312 155.914 14.3893L158.036 16.5107ZM174.625 5.8956C181.029 3.37283 188.139 2.1 195.975 2.1V-0.900002C187.811 -0.900002 180.321 0.427155 173.525 3.10438L174.625 5.8956ZM195.975 2.1C203.811 2.1 210.921 3.37283 217.325 5.8956L218.425 3.10438C211.629 0.427155 204.139 -0.900002 195.975 -0.900002V2.1ZM217.344 5.90273C223.751 8.32959 229.213 11.8629 233.753 16.4994L235.897 14.4006C231.037 9.4371 225.199 5.67041 218.406 3.09725L217.344 5.90273ZM233.764 16.5107C238.404 21.1506 241.941 26.7148 244.37 33.2244L247.18 32.1756C244.609 25.2852 240.846 19.3494 235.886 14.3893L233.764 16.5107ZM244.379 33.2498C246.901 39.6496 248.175 46.8592 248.175 54.9H251.175C251.175 46.5408 249.849 38.9504 247.171 32.1502L244.379 33.2498ZM248.175 54.9C248.175 63.0427 246.9 70.355 244.377 76.8573L247.173 77.9427C249.85 71.045 251.175 63.3572 251.175 54.9H248.175ZM244.37 76.8756C241.94 83.3877 238.4 89.0065 233.753 93.7503L235.897 95.8497C240.85 90.7935 244.61 84.8123 247.18 77.9244L244.37 76.8756ZM233.753 93.7506C229.209 98.3914 223.74 101.977 217.325 104.504L218.425 107.296C225.21 104.623 231.041 100.809 235.897 95.8494L233.753 93.7506ZM217.344 104.497C210.935 106.925 203.817 108.15 195.975 108.15V111.15C204.133 111.15 211.615 109.875 218.406 107.303L217.344 104.497ZM195.975 88.05C201.517 88.05 206.323 86.7398 210.315 84.0429L208.635 81.5571C205.227 83.8602 201.033 85.05 195.975 85.05V88.05ZM210.315 84.0429C214.287 81.3587 217.309 77.5141 219.405 72.5873L216.645 71.4127C214.741 75.8859 212.063 79.2413 208.635 81.5571L210.315 84.0429ZM219.405 72.5873C221.504 67.6559 222.525 61.7954 222.525 55.05H219.525C219.525 61.5046 218.546 66.9441 216.645 71.4127L219.405 72.5873ZM222.525 55.05C222.525 48.3046 221.504 42.4441 219.405 37.5127L216.645 38.6873C218.546 43.1559 219.525 48.5954 219.525 55.05H222.525ZM219.416 37.5378C217.414 32.5854 214.375 28.7706 210.276 26.1818L208.674 28.7182C212.175 30.9294 214.836 34.2146 216.634 38.6622L219.416 37.5378ZM210.315 26.2071C206.323 23.5102 201.517 22.2 195.975 22.2V25.2C201.033 25.2 205.227 26.3898 208.635 28.6929L210.315 26.2071ZM195.975 22.2C190.525 22.2 185.729 23.5136 181.651 26.1969L183.299 28.7031C186.821 26.3864 191.025 25.2 195.975 25.2V22.2ZM181.659 26.1916C177.67 28.7787 174.643 32.5825 172.545 37.5127L175.305 38.6873C177.207 34.2175 179.88 30.9213 183.291 28.7084L181.659 26.1916ZM172.545 37.5127C170.446 42.4441 169.425 48.3046 169.425 55.05H172.425C172.425 48.5954 173.404 43.1559 175.305 38.6873L172.545 37.5127ZM169.425 55.05C169.425 61.7873 170.394 67.6385 172.384 72.5622L175.166 71.4378C173.356 66.9615 172.425 61.5127 172.425 55.05H169.425ZM172.395 72.5873C174.496 77.5246 177.574 81.3713 181.651 84.0531L183.299 81.5469C179.776 79.2287 177.054 75.8754 175.155 71.4127L172.395 72.5873ZM181.651 84.0531C185.729 86.7364 190.525 88.05 195.975 88.05V85.05C191.025 85.05 186.821 83.8636 183.299 81.5469L181.651 84.0531Z" fill="black" mask="url(#path-1-inside-1_2350_488)"/>
</svg>
