<svg width="128" height="110" viewBox="0 0 128 110" fill="none" xmlns="http://www.w3.org/2000/svg">
<path d="M0.75 4.75H63C73.6315 4.75 82.25 13.3685 82.25 24V108.484L80.451 103.502C77.7959 96.1497 70.8172 91.25 63 91.25H42H0.75V4.75Z" stroke="black" stroke-width="1.5"/>
<path d="M164.25 4.75H102C91.3685 4.75 82.75 13.3685 82.75 24V108.484L84.549 103.502C87.2041 96.1497 94.1828 91.25 102 91.25H123H164.25V4.75Z" stroke="black" stroke-width="1.5"/>
<path d="M160.25 0.75H102C91.3685 0.75 82.75 9.36852 82.75 20V105.397L84.6199 99.8618C86.9989 92.8203 93.6036 88.0802 101.036 88.0802H121.024H160.25V0.75Z" fill="white" stroke="black" stroke-width="1.5"/>
<path d="M4.75 0.75H63C73.6315 0.75 82.25 9.36852 82.25 20V105.397L80.3801 99.8618C78.0011 92.8203 71.3964 88.0802 63.9639 88.0802H43.9759H4.75V0.75Z" fill="white" stroke="black" stroke-width="1.5"/>
<path d="M13 13.5H64.5C68.4361 13.5 71.9861 15.8667 73.5 19.5V19.5" stroke="black"/>
<path d="M13 21H64.5C68.4361 21 71.9861 23.3667 73.5 27V27" stroke="black"/>
<path d="M13 29H64.5C68.4361 29 71.9861 31.3667 73.5 35V35" stroke="black"/>
<path d="M13 37H64.5C68.4361 37 71.9861 39.3667 73.5 43V43" stroke="black"/>
<path d="M13 45H55" stroke="black"/>
<path d="M13 53H55" stroke="black"/>
</svg>
