<svg width="99" height="104" viewBox="0 0 99 104" fill="none" xmlns="http://www.w3.org/2000/svg">
<path d="M98.1931 2H50.9444V83.48M50.9444 83.48H98.1931M50.9444 83.48H48.4906M50.9444 83.48L50.9444 71.79H41.1595M22.8964 71.79H8.12429C6.50003 71.79 4.94232 72.4369 3.7938 73.5884C2.64527 74.7399 2 76.3015 2 77.9299V83.53H15.4156M50.9444 45.5801H17.1212M17.1212 45.5801C14.5596 45.5801 12.1027 46.5995 10.2905 48.4146C8.47817 50.2296 7.4587 52.6918 7.45605 55.26V71.79M17.1212 45.5801L21.879 23.0701M21.879 23.0701H50.9444V10.8H34.1176C30.8717 10.8 27.7588 12.0927 25.4636 14.3938C23.1684 16.6949 21.879 19.8159 21.879 23.0701ZM48.6403 85.6899C48.6403 94.9352 41.1647 102.43 31.9432 102.43C22.7216 102.43 15.246 94.9352 15.246 85.6899C15.246 76.4447 22.7216 68.95 31.9432 68.95C41.1647 68.95 48.6403 76.4447 48.6403 85.6899ZM43.6032 85.6899C43.6032 92.1462 38.3828 97.3801 31.9431 97.3801C25.5035 97.3801 20.2831 92.1462 20.2831 85.6899C20.2831 79.2337 25.5035 74 31.9431 74C38.3828 74 43.6032 79.2337 43.6032 85.6899ZM37.2994 85.6899C37.2994 88.6557 34.9013 91.0601 31.9432 91.0601C28.985 91.0601 26.5869 88.6557 26.5869 85.6899C26.5869 82.7242 28.985 80.3201 31.9432 80.3201C34.9013 80.3201 37.2994 82.7242 37.2994 85.6899ZM7.43604 55.3101H19.6746C19.6614 58.5556 18.3662 61.6636 16.0724 63.9539C13.7787 66.2441 10.6733 67.5301 7.43604 67.53V55.26V55.3101Z" stroke="black" stroke-width="2.83" stroke-miterlimit="10"/>
</svg>
