<svg width="141" height="102" viewBox="0 0 141 102" fill="none" xmlns="http://www.w3.org/2000/svg">
<path d="M49.9344 101.05C43.4227 96.6513 38.4919 90.2725 35.8681 82.853C33.2443 75.4335 33.0661 67.3653 35.3599 59.8367C37.6537 52.308 42.2981 45.7167 48.6094 41.0334C54.9206 36.3502 62.565 33.8225 70.4168 33.8225C78.2687 33.8225 85.9131 36.3502 92.2243 41.0334C98.5355 45.7167 103.18 52.308 105.474 59.8367C107.768 67.3653 107.589 75.4335 104.966 82.853C102.342 90.2725 97.4109 96.6513 90.8992 101.05M132.762 101.05C133.526 99.4633 134.241 97.8398 134.906 96.1798L123.077 88.5199C123.871 86.1958 124.508 83.8203 124.982 81.4098L139.046 80.7098C140.03 73.9825 140.03 67.1471 139.046 60.4198L124.982 59.7098C124.507 57.2996 123.87 54.9242 123.077 52.5997L134.906 44.9398C132.402 38.6215 128.988 32.7052 124.772 27.3798L112.244 33.8099C110.632 31.9635 108.899 30.2262 107.058 28.6097L113.481 16.0599C108.171 11.8257 102.265 8.40187 95.9562 5.89978L88.3258 17.7499C86.0029 16.9577 83.6305 16.3195 81.224 15.8397L80.5259 1.74988C73.8167 0.75004 66.9969 0.75004 60.2878 1.74988L59.5796 15.8397C57.1767 16.3208 54.8077 16.959 52.4878 17.7499L44.8475 5.89978C38.5417 8.40275 32.6396 11.8266 27.3324 16.0599L33.7459 28.6097C31.9091 30.2313 30.1767 31.9684 28.5592 33.8099L16.0414 27.3798C11.8116 32.7009 8.38684 38.6178 5.87749 44.9398L17.6971 52.5997C16.9083 54.9256 16.2719 57.3008 15.792 59.7098L1.73812 60.4198C0.753961 67.1471 0.753961 73.9825 1.73812 80.7098L15.792 81.4098C16.2706 83.8192 16.907 86.1944 17.6971 88.5199L5.87749 96.1998C6.5358 97.8598 7.24397 99.4799 8.02197 101.07M86.7798 70.5601C86.7798 79.6286 79.4472 86.98 70.4019 86.98C61.3566 86.98 54.0239 79.6286 54.0239 70.5601C54.0239 61.4915 61.3566 54.1399 70.4019 54.1399C79.4472 54.1399 86.7798 61.4915 86.7798 70.5601Z" stroke="black" stroke-width="1.5" stroke-miterlimit="10"/>
</svg>
