<svg width="98" height="103" viewBox="0 0 98 103" fill="none" xmlns="http://www.w3.org/2000/svg">
<path d="M97.1931 1H49.9444V82.48M49.9444 82.48H97.1931M49.9444 82.48H47.4906M49.9444 82.48L49.9444 70.79H40.1595M21.8964 70.79H7.12429C5.50003 70.79 3.94232 71.4369 2.7938 72.5884C1.64527 73.7399 1 75.3015 1 76.9299V82.53H14.4156M49.9444 44.5801H16.1212M16.1212 44.5801C13.5596 44.5801 11.1027 45.5995 9.29045 47.4146C7.47817 49.2296 6.4587 51.6918 6.45605 54.26V70.79M16.1212 44.5801L20.879 22.0701M20.879 22.0701H49.9444V9.80005H33.1176C29.8717 9.80005 26.7588 11.0927 24.4636 13.3938C22.1684 15.6949 20.879 18.8159 20.879 22.0701ZM47.6403 84.6899C47.6403 93.9352 40.1647 101.43 30.9432 101.43C21.7216 101.43 14.246 93.9352 14.246 84.6899C14.246 75.4447 21.7216 67.95 30.9432 67.95C40.1647 67.95 47.6403 75.4447 47.6403 84.6899ZM42.6032 84.6899C42.6032 91.1462 37.3828 96.3801 30.9431 96.3801C24.5035 96.3801 19.2831 91.1462 19.2831 84.6899C19.2831 78.2337 24.5035 73 30.9431 73C37.3828 73 42.6032 78.2337 42.6032 84.6899ZM36.2994 84.6899C36.2994 87.6557 33.9013 90.0601 30.9432 90.0601C27.985 90.0601 25.5869 87.6557 25.5869 84.6899C25.5869 81.7242 27.985 79.3201 30.9432 79.3201C33.9013 79.3201 36.2994 81.7242 36.2994 84.6899ZM6.43604 54.3101H18.6746C18.6614 57.5556 17.3662 60.6636 15.0724 62.9539C12.7787 65.2441 9.67329 66.5301 6.43604 66.53V54.26V54.3101Z" stroke="black" stroke-width="1.5" stroke-miterlimit="10"/>
</svg>
