<svg width="106" height="106" viewBox="0 0 106 106" fill="none" xmlns="http://www.w3.org/2000/svg">
<path d="M103.696 47.2458C96.0486 47.2458 88.7141 50.2917 83.3063 55.7134C77.8985 61.1351 74.8604 68.4884 74.8604 76.1558C74.8604 83.8232 77.8985 91.1765 83.3063 96.5981C88.7141 102.02 96.0486 105.066 103.696 105.066M103.696 54.6658C98.0089 54.6658 92.5542 56.9309 88.5325 60.9629C84.5108 64.9949 82.2515 70.4636 82.2515 76.1658C82.2515 81.8679 84.5108 87.3366 88.5325 91.3687C92.5542 95.4007 98.0089 97.6658 103.696 97.6658M57.7244 9.62585C57.0826 7.34819 55.774 5.31604 53.9679 3.79187C52.1618 2.26769 49.9413 1.32157 47.5933 1.07605C45.2452 0.830519 42.8777 1.29671 40.7968 2.41442C38.7159 3.53214 37.0172 5.24997 35.9203 7.34582M97.5122 7.3558C96.4243 5.26359 94.7367 3.54566 92.6667 2.42318C90.5967 1.3007 88.2389 0.825133 85.897 1.05746C83.555 1.28978 81.336 2.21946 79.5255 3.72689C77.715 5.23432 76.396 7.25057 75.7382 9.51595M49.0068 8.57578C46.4467 7.42461 43.6768 6.81723 40.8712 6.79185C38.0656 6.76646 35.2851 7.32366 32.7048 8.42832C30.1245 9.53298 27.8002 11.1612 25.8783 13.2105C23.9563 15.2599 22.4783 17.6858 21.5373 20.3358M84.6752 54.4257H84.4358C72.6002 52.7725 60.593 52.7725 48.7574 54.4257M74.8605 81.7759C72.1774 81.5559 69.4543 81.4458 66.7213 81.4458C63.7888 81.4458 60.8897 81.5724 58.0237 81.8257M48.7574 8.57561H48.9968C53.0597 9.14894 57.1824 9.52239 61.365 9.69572C61.6347 10.9158 62.3115 12.0072 63.2836 12.7895C64.2556 13.5717 65.4648 13.998 66.7113 13.998C67.9578 13.998 69.167 13.5717 70.1391 12.7895C71.1112 12.0072 71.788 10.9158 72.0576 9.69572C76.3167 9.51572 80.4959 9.04573 84.6353 8.45573C87.9156 7.01978 91.5162 6.47891 95.0721 6.88811C98.6281 7.2973 102.013 8.64184 104.883 10.7856M2.99487 65.3257L21.5273 20.3357M59.5995 53.1658L61.8339 11.0356M73.7333 53.3557L71.6486 10.9058M58.5722 76.1557C58.5599 68.7317 55.6944 61.598 50.5713 56.2375C45.4483 50.8769 38.4619 47.7018 31.0642 47.3722C23.6665 47.0426 16.4266 49.5839 10.8495 54.4677C5.27239 59.3515 1.787 66.2022 1.11785 73.5959C0.448685 80.9895 2.6472 88.3572 7.25644 94.1676C11.8657 99.9781 18.5311 103.784 25.8671 104.795C33.2032 105.806 40.6455 103.943 46.6473 99.5949C52.649 95.2464 56.7485 88.7462 58.0935 81.4457C58.4147 79.7009 58.5749 77.93 58.5722 76.1557ZM51.1712 76.1558C51.1712 88.0188 41.5789 97.6357 29.7462 97.6357C17.9135 97.6357 8.32123 88.0188 8.32123 76.1558C8.32123 64.2927 17.9135 54.6758 29.7462 54.6758C41.5789 54.6758 51.1712 64.2927 51.1712 76.1558ZM72.1674 67.0059C72.1674 70.0269 69.7246 72.4758 66.7113 72.4758C63.6981 72.4758 61.2554 70.0269 61.2554 67.0059C61.2554 63.9849 63.6981 61.5356 66.7113 61.5356C69.7246 61.5356 72.1674 63.9849 72.1674 67.0059ZM69.3944 67.0059C69.3944 68.4915 68.1932 69.6958 66.7113 69.6958C65.2295 69.6958 64.0282 68.4915 64.0282 67.0059C64.0282 65.5202 65.2295 64.3157 66.7113 64.3157C68.1932 64.3157 69.3944 65.5202 69.3944 67.0059ZM27.103 69.6958C27.103 72.7168 24.6603 75.1658 21.647 75.1658C18.6337 75.1658 16.191 72.7168 16.191 69.6958C16.191 66.6748 18.6337 64.2258 21.647 64.2258C24.6603 64.2258 27.103 66.6748 27.103 69.6958ZM29.2974 80.2258C29.2974 81.6618 28.1363 82.8257 26.704 82.8257C25.2718 82.8257 24.1107 81.6618 24.1107 80.2258C24.1107 78.7899 25.2718 77.6257 26.704 77.6257C28.1363 77.6257 29.2974 78.7899 29.2974 80.2258ZM102.499 80.2258C102.499 81.6618 101.338 82.8257 99.9061 82.8257C98.4739 82.8257 97.3127 81.6618 97.3127 80.2258C97.3127 78.7899 98.4739 77.6257 99.9061 77.6257C101.338 77.6257 102.499 78.7899 102.499 80.2258ZM100.425 69.6958C100.425 72.7168 97.982 75.1658 94.9688 75.1658C91.9555 75.1658 89.5128 72.7168 89.5128 69.6958C89.5128 66.6748 91.9555 64.2258 94.9688 64.2258C97.982 64.2258 100.425 66.6748 100.425 69.6958Z" stroke="black" stroke-width="1.5" stroke-miterlimit="10"/>
</svg>
