<svg width="219" height="181" viewBox="0 0 219 181" fill="none" xmlns="http://www.w3.org/2000/svg">
<path d="M61.4046 158.15L61.679 158.848L61.8249 158.791L61.9356 158.68L61.4046 158.15ZM19.562 174.6L19.5083 175.348L19.678 175.36L19.8364 175.298L19.562 174.6ZM13.4278 174.16L12.8968 174.69L13.0947 174.888L13.3741 174.908L13.4278 174.16ZM6.85459 167.57L6.10649 167.623L6.12636 167.902L6.32358 168.099L6.85459 167.57ZM6.41577 161.42L5.7173 161.147L5.65562 161.304L5.66767 161.473L6.41577 161.42ZM22.8236 119.47L22.2926 118.94L22.1821 119.051L22.1251 119.197L22.8236 119.47ZM6.15657 179.8L6.42837 180.499L6.43066 180.498L6.15657 179.8ZM4.63046 180.04L4.5833 180.789L4.58629 180.789L4.63046 180.04ZM2.40619 179.04L1.87509 179.57L1.87787 179.572L2.40619 179.04ZM2.00719 178.64L1.47237 179.166L1.4761 179.169L2.00719 178.64ZM1.00975 176.41L1.75822 176.361L1.75765 176.354L1.00975 176.41ZM1.23914 174.88L0.540715 174.607L0.540579 174.607L1.23914 174.88ZM218.444 1.76964C218.737 1.47637 218.736 1.0015 218.443 0.708981C218.149 0.416463 217.675 0.417072 217.382 0.71034L218.444 1.76964ZM141.531 1.52967C141.824 1.23642 141.823 0.761543 141.53 0.469013C141.237 0.176483 140.762 0.177072 140.469 0.470328L141.531 1.52967ZM61.1302 157.452L19.2875 173.902L19.8364 175.298L61.679 158.848L61.1302 157.452ZM19.6156 173.852L13.4815 173.412L13.3741 174.908L19.5083 175.348L19.6156 173.852ZM13.9588 173.63L7.3856 167.04L6.32358 168.099L12.8968 174.69L13.9588 173.63ZM7.60268 167.516L7.16387 161.367L5.66767 161.473L6.10649 167.623L7.60268 167.516ZM7.11425 161.693L23.5221 119.743L22.1251 119.197L5.7173 161.147L7.11425 161.693ZM19.4077 173.792L5.88248 179.102L6.43066 180.498L19.9559 175.188L19.4077 173.792ZM5.88478 179.101C5.49965 179.251 5.08692 179.316 4.67463 179.291L4.58629 180.789C5.21396 180.826 5.84223 180.727 6.42837 180.499L5.88478 179.101ZM4.67762 179.292C4.02152 179.25 3.40224 178.972 2.93451 178.508L1.87787 179.572C2.60306 180.292 3.56414 180.724 4.5833 180.789L4.67762 179.292ZM2.93728 178.51L2.53828 178.11L1.4761 179.169L1.8751 179.57L2.93728 178.51ZM2.542 178.114C2.07938 177.644 1.80096 177.021 1.75818 176.361L0.26132 176.458C0.327355 177.477 0.7571 178.438 1.47238 179.166L2.542 178.114ZM1.75765 176.354C1.72702 175.945 1.78858 175.534 1.9377 175.153L0.540579 174.607C0.309673 175.198 0.214449 175.833 0.261845 176.466L1.75765 176.354ZM1.93757 175.153L7.24401 161.593L5.84716 161.047L0.540715 174.607L1.93757 175.153ZM61.9356 158.68L218.444 1.76964L217.382 0.71034L60.8736 157.62L61.9356 158.68ZM22.0755 119.524L23.3723 137.574L24.8684 137.466L23.5717 119.416L22.0755 119.524ZM23.5893 138.05L42.8698 157.38L43.9318 156.32L24.6513 136.99L23.5893 138.05ZM43.3468 157.598L61.3506 158.898L61.4586 157.402L43.4548 156.102L43.3468 157.598ZM140.469 0.470328L22.2926 118.94L23.3546 120L141.531 1.52967L140.469 0.470328ZM159.52 0.71034L23.5893 136.99L24.6513 138.05L160.582 1.76964L159.52 0.71034ZM198.091 0.710323L42.8698 156.32L43.9318 157.38L199.153 1.76966L198.091 0.710323ZM43.0257 156.2L13.0527 173.51L13.8029 174.809L43.7759 157.499L43.0257 156.2ZM23.47 137.146L6.20429 167.196L7.50489 167.943L24.7706 137.894L23.47 137.146Z" fill="black"/>
</svg>
