<svg width="161" height="137" viewBox="0 0 161 137" fill="none" xmlns="http://www.w3.org/2000/svg">
<path d="M12.2709 135.489L48.1787 101.699C49.946 100.043 52.2856 99.1395 54.7044 99.1787C57.1232 99.2179 59.4323 100.197 61.1454 101.909C62.8535 103.627 63.8299 105.942 63.869 108.367C63.9081 110.792 63.0067 113.137 61.3548 114.909L42.1143 135.469M52.7072 135.489L78.3016 108.149C93.5325 92.3991 105.043 90.9091 114.628 90.6091C117.408 90.7658 120.196 90.6622 122.957 90.2993C124.799 90.1452 126.618 89.7897 128.383 89.2392C130.597 88.6549 132.764 87.9062 134.866 86.9992L107.187 38.8193L149.15 14.5891L148.721 14.1391C143.152 8.55425 136.211 4.54285 128.6 2.51048C120.989 0.478105 112.977 0.497012 105.376 2.56516C97.7743 4.63332 90.8522 8.67729 85.3099 14.2883C79.7676 19.8993 75.8017 26.8783 73.8131 34.5193C73.2554 36.2898 72.9006 38.1182 72.7557 39.9692C72.3902 42.7365 72.2834 45.5321 72.4366 48.3193C72.1374 57.9193 70.6611 69.4592 54.9515 84.7392L1 135.489M107.317 59.5793L104.285 62.6191M109.601 63.6191L106.569 66.6592M111.885 67.6592L108.853 70.6992M117.96 57.4692L133.28 84.1492C142.752 80.0191 150.508 72.7333 155.234 63.5261C159.96 54.319 161.366 43.7567 159.214 33.6292L117.96 57.4692ZM106.713 53.1138L119.332 75.4383L111.174 80.0729L98.5555 57.7483L106.713 53.1138Z" stroke="black" stroke-width="1.5" stroke-linecap="round" stroke-linejoin="round"/>
</svg>
