<svg width="138" height="114" viewBox="0 0 138 114" fill="none" xmlns="http://www.w3.org/2000/svg">
<path d="M51.5015 111.98C52.4823 111.038 53.1868 109.844 53.5385 108.529C53.8902 107.214 53.8757 105.827 53.4964 104.52C52.934 102.72 52.9881 100.784 53.6501 99.0186C54.3122 97.2534 55.5442 95.7611 57.15 94.7791C58.7558 93.797 60.6431 93.3818 62.5115 93.5994C64.3799 93.8169 66.122 94.6549 67.4606 95.9797L73.2856 90.1396L48.4494 65.2297L42.6243 71.0696C43.9458 72.4116 44.7816 74.1583 44.9986 76.0315C45.2156 77.9047 44.8014 79.7968 43.8218 81.4067C42.8423 83.0166 41.3538 84.2518 39.5932 84.9155C37.8326 85.5793 35.9011 85.6335 34.1062 85.0696C32.8004 84.6908 31.4161 84.6768 30.103 85.0293C28.7898 85.3818 27.5977 86.0873 26.6553 87.0696L0.991211 112.8M12.9106 112.81L31.6525 94.0195C32.1979 93.4779 32.9346 93.1741 33.7023 93.1741C34.47 93.1741 35.2066 93.4779 35.752 94.0195C36.2941 94.5633 36.5986 95.3008 36.5986 96.0696C36.5986 96.8384 36.2941 97.5758 35.752 98.1196L21.0996 112.81M30.5653 112.81L40.4799 102.87C41.0253 102.328 41.7619 102.024 42.5296 102.024C43.2973 102.024 44.0339 102.328 44.5793 102.87C45.1214 103.413 45.4259 104.151 45.4259 104.92C45.4259 105.689 45.1214 106.426 44.5793 106.97L38.7543 112.81M125.043 26.2996L136.683 8.15967L130.219 1.67969L112.126 13.3396L106.889 25.0696L57.6358 74.4497L64.199 81.0295L113.353 31.5496L125.043 26.2996Z" stroke="#231F20" stroke-width="1.5" stroke-miterlimit="10"/>
</svg>
